<?xml version="1.0" encoding="UTF-8"?>
<svg version="1.1" xmlns="http://www.w3.org/2000/svg" width="1024" height="1024">
<path d="M0 0 C337.92 0 675.84 0 1024 0 C1024 337.92 1024 675.84 1024 1024 C686.08 1024 348.16 1024 0 1024 C0 686.08 0 348.16 0 0 Z " fill="#FEFEFE" transform="translate(0,0)"/>
<path d="M0 0 C27.97799646 24.39960422 45.48531962 59.23903313 48.53857422 96.26953125 C51.05945362 134.49013712 40.40433101 173.50626465 14.99194336 202.74243164 C13.57111757 204.33250321 12.13248107 205.90373324 10.68359375 207.46826172 C10.1848877 208.0107959 9.68618164 208.55333008 9.17236328 209.11230469 C-17.03652116 237.30608413 -54.68069441 254.22613422 -93.1484375 255.78466797 C-131.75839549 256.55493313 -167.75853674 244.59697035 -197.31640625 219.46826172 C-198.73566406 218.26943359 -198.73566406 218.26943359 -200.18359375 217.04638672 C-212.13670469 206.67829425 -221.60966176 194.25663285 -229.31640625 180.46826172 C-229.909375 179.41767578 -230.50234375 178.36708984 -231.11328125 177.28466797 C-249.38851937 142.95794859 -252.32373171 101.79892933 -241.07128906 64.79833984 C-233.8767043 42.59099282 -222.2737103 24.39001822 -206.31640625 7.46826172 C-205.69507813 6.79408203 -205.07375 6.11990234 -204.43359375 5.42529297 C-150.71717615 -50.87580581 -57.38288601 -48.65286842 0 0 Z " fill="#FEFEFE" transform="translate(762.31640625,329.53173828125)"/>
<path d="M0 0 C1.02359619 0.28302979 1.02359619 0.28302979 2.06787109 0.57177734 C20.6494379 5.8468513 39.57676785 14.29961699 55 26 C56.03511719 26.75539063 57.07023437 27.51078125 58.13671875 28.2890625 C95.33589235 55.78891241 121.6715377 96.93678696 129.96972656 142.65014648 C133.18112965 164.49573513 132.97532217 189.47291708 128 211 C127.83371094 211.76505859 127.66742187 212.53011719 127.49609375 213.31835938 C117.92607095 256.59612913 92.12393466 293.4904026 57 320 C58.54551744 324.44936069 60.93177659 328.16377908 63.55078125 332.0390625 C64.00121796 332.71327744 64.45165466 333.38749237 64.91574097 334.08213806 C66.37673815 336.26620743 67.84442033 338.4456864 69.3125 340.625 C70.32166399 342.12993015 71.33053337 343.6350579 72.33911133 345.14038086 C79.04369164 355.13681402 85.79111541 365.1037053 92.62792969 375.01025391 C93.9769637 376.96659327 95.32129228 378.92607603 96.6640625 380.88671875 C104.0278036 391.63321241 111.47406602 402.32217915 118.91943359 413.01220703 C122.28143898 417.84020773 125.64060919 422.67017987 129 427.5 C130.33331902 429.41667662 131.66665237 431.33334328 133 433.25 C135.66666667 437.08333333 138.33333333 440.91666667 141 444.75 C141.99084595 446.1743335 141.99084595 446.1743335 143.00170898 447.62744141 C144.32936479 449.53595677 145.65700164 451.44448533 146.98461914 453.35302734 C151.10809396 459.28074394 155.23194249 465.20819974 159.35742188 471.13452148 C160.73123074 473.10961359 162.1036541 475.08567022 163.47460938 477.06274414 C166.19607396 480.98587236 168.91649173 484.90637453 171.72265625 488.76953125 C182.97706053 504.4253149 189.8250142 519.45227761 188 539 C187.21014328 542.49996392 186.04888909 545.06954141 184 548 C183.27103516 549.05574219 183.27103516 549.05574219 182.52734375 550.1328125 C177.54631367 556.51512527 171.69527116 560.3908546 163.59765625 561.44140625 C151.25271206 561.85692554 143.12886138 558.01767038 134 550 C133.39414062 549.48824219 132.78828125 548.97648438 132.1640625 548.44921875 C123.22120271 540.29543482 118.1792868 528.55978162 112.70654297 517.97729492 C112.40549518 517.39589701 112.1044474 516.8144991 111.79427695 516.21548307 C104.50030214 502.12121951 97.39993885 487.93077034 90.31468821 473.73077035 C88.50091005 470.09679952 86.6847409 466.46402386 84.86886597 462.83110046 C81.44543598 455.9811711 78.02403752 449.1302293 74.60343444 442.27888793 C70.73205924 434.52491405 66.85838511 426.77208948 62.98451829 419.01936018 C57.57688032 408.19704336 52.1700154 397.37434104 46.76504326 386.55069256 C45.50192203 384.02125647 44.23863445 381.49190359 42.97517586 378.96263599 C40.46044561 373.92825583 37.94618476 368.89365724 35.43792725 363.85604858 C35.07003019 363.11793788 34.70213314 362.37982718 34.32308769 361.61934948 C33.41973631 359.80670788 32.51740386 357.99355857 31.61520386 356.18034363 C28.8475419 350.73080483 25.93695583 345.35994439 23 340 C22.33170166 340.22139648 21.66340332 340.44279297 20.97485352 340.67089844 C-5.46142882 349.38849896 -5.46142882 349.38849896 -19 352 C-20.15628906 352.22429687 -21.31257812 352.44859375 -22.50390625 352.6796875 C-41.51710175 355.67421452 -63.09123872 355.42597765 -82 352 C-83.64935547 351.76023437 -83.64935547 351.76023437 -85.33203125 351.515625 C-129.42874827 344.1909178 -171.92466889 317.5183827 -198.0625 281.25 C-218.07873695 252.74414451 -232.87982134 218.89916848 -233.23828125 183.55859375 C-233.2480751 182.76214447 -233.25786896 181.96569519 -233.26795959 181.14511108 C-233.43466753 164.07326428 -233.4421973 147.60922019 -229 131 C-228.78569336 130.16065918 -228.57138672 129.32131836 -228.35058594 128.45654297 C-225.1378308 116.0755106 -220.61293563 104.48027435 -215 93 C-214.67773438 92.33629395 -214.35546875 91.67258789 -214.0234375 90.98876953 C-209.25802881 81.30055806 -203.54512402 72.57345135 -197 64 C-196.31550781 63.08992188 -195.63101563 62.17984375 -194.92578125 61.2421875 C-166.69359993 25.21254658 -125.80816328 2.54187474 -81 -5 C-80.3282373 -5.11859375 -79.65647461 -5.2371875 -78.96435547 -5.359375 C-52.92416611 -9.84285111 -25.32111273 -7.14371666 0 0 Z M-84 31 C-84.74652832 31.16628906 -85.49305664 31.33257812 -86.26220703 31.50390625 C-113.51844792 37.82758835 -136.76449465 51.95688145 -157 71 C-157.97646484 71.87978516 -157.97646484 71.87978516 -158.97265625 72.77734375 C-181.76447282 94.16514698 -197.22824323 128.32039297 -198.90234375 159.52734375 C-198.93457031 160.67332031 -198.96679688 161.81929687 -199 163 C-199.03109863 163.77875488 -199.06219727 164.55750977 -199.09423828 165.35986328 C-200.60105758 206.36200643 -187.32998275 244.19009837 -159.51025391 274.39941406 C-146.30579034 288.39366934 -130.56768715 299.23044176 -113 307 C-112.05278076 307.42104004 -112.05278076 307.42104004 -111.08642578 307.85058594 C-98.56318851 313.32970392 -85.53751309 317.04252094 -72 319 C-71.22527344 319.11214844 -70.45054687 319.22429687 -69.65234375 319.33984375 C-30.8296603 323.831216 9.5383307 313.55682224 40.40332031 289.30175781 C45.15315115 285.42926576 49.59089064 281.25164117 54 277 C54.77859375 276.28457031 55.5571875 275.56914063 56.359375 274.83203125 C81.8575029 250.73539619 96.14615778 213.666269 97.1875 178.95703125 C97.9047269 138.04521329 84.0606184 101.78898983 56 72 C55.4121875 71.34773438 54.824375 70.69546875 54.21875 70.0234375 C29.23261882 43.3934819 -9.40198276 29.00069461 -45.37890625 27.71484375 C-58.50012389 27.44501848 -71.18034588 28.13426434 -84 31 Z " fill="#1EB6C1" transform="translate(714,265)"/>
<path d="M0 0 C19.09775713 3.22194357 38.14693426 6.65091598 57.17041016 10.28442383 C59.91108651 10.80779261 62.65229791 11.32820633 65.39404297 11.84594727 C91.4739519 16.77156807 91.4739519 16.77156807 102.12109375 19.15625 C103.36560303 19.43404297 104.6101123 19.71183594 105.89233398 19.99804688 C111.83231937 21.91317768 115.28296348 25.65338342 118.875 30.5625 C124.65006516 37.18683945 132.19653894 39.54337484 140.4453125 41.7109375 C141.39212891 41.96442459 142.33894531 42.21791168 143.31445312 42.4790802 C158.19532783 46.4253136 173.16584062 50.04154373 188.12109375 53.69458008 C190.81860437 54.35374808 193.51513052 55.01670386 196.21069336 55.68379211 C198.71787714 56.30406266 201.22644662 56.91876736 203.73657227 57.52702332 C217.09711367 60.84673389 217.09711367 60.84673389 221.375 65.6875 C223.3794404 69.77347465 224.06148294 72.61621332 223 77 C221.36169295 80.70906063 219.56025286 84.26622748 217.62890625 87.828125 C215.24571895 92.4687679 214.86758173 96.0298765 214.79467773 101.23730469 C214.77473251 102.49830994 214.75478729 103.75931519 214.73423767 105.05853271 C214.71725599 106.42964557 214.70037709 107.8007597 214.68359375 109.171875 C214.66301165 110.57863967 214.64201485 111.98539833 214.62062073 113.39215088 C214.56552965 117.08773927 214.51606345 120.78338226 214.46777344 124.47906494 C214.41746351 128.25301959 214.36182707 132.02689532 214.30664062 135.80078125 C214.19921772 143.20045392 214.09773781 150.6001924 214 158 C192.72850507 158.09365413 171.4570444 158.16408219 150.18538475 158.20724869 C140.30743877 158.22782896 130.42962129 158.25586235 120.55175781 158.30175781 C111.93706312 158.34176496 103.32246155 158.36746574 94.70767653 158.37635398 C90.1508497 158.38154534 85.59428913 158.39365117 81.03754807 158.42292023 C76.73818262 158.45030927 72.43919012 158.45839818 68.13974571 158.45243073 C66.57174965 158.45352056 65.00373957 158.46133348 63.43581963 158.4768219 C45.42681287 158.64581681 29.59183291 154.06058081 16.1640625 141.4140625 C8.36046246 132.70896354 3.71833533 123.35875835 1 112 C0.82394509 111.37792789 0.64789019 110.75585579 0.46650028 110.11493301 C-0.04025857 107.8174831 -0.12298932 105.77081427 -0.12025452 103.41888428 C-0.12162918 102.50465698 -0.12300385 101.59042969 -0.12442017 100.64849854 C-0.12082489 99.65299988 -0.11722961 98.65750122 -0.11352539 97.63183594 C-0.11367142 96.57786621 -0.11381744 95.52389648 -0.1139679 94.43798828 C-0.1132711 90.9534296 -0.10548953 87.46892434 -0.09765625 83.984375 C-0.09579124 81.56870554 -0.09436773 79.1530357 -0.09336853 76.73736572 C-0.08954986 70.37844804 -0.07972508 64.01955319 -0.06866455 57.66064453 C-0.05843649 51.17220366 -0.05386791 44.68375911 -0.04882812 38.1953125 C-0.03810226 25.46353193 -0.02122575 12.73176718 0 0 Z " fill="#1EB7C1" transform="translate(144,623)"/>
<path d="M0 0 C2.36445155 0.00582545 4.7223351 0.07598278 7.08565331 0.14722669 C8.79124227 0.15089725 10.49685176 0.14882825 12.20242882 0.14147413 C16.81725893 0.13775333 21.42767009 0.21400393 26.0414753 0.30493557 C30.86855274 0.38637239 35.69573905 0.39385184 40.52339745 0.40926588 C49.65788322 0.44962403 58.79033905 0.55623185 67.92393208 0.68680924 C78.32508313 0.83227033 88.72633274 0.90363021 99.12824821 0.9688499 C120.51882748 1.10462419 141.90758113 1.33318466 163.29659081 1.62305677 C162.9054634 2.44215937 162.9054634 2.44215937 162.50643444 3.2778095 C161.31535622 5.77471327 160.1268768 8.27284565 158.93843651 10.77100599 C158.52819489 11.63002012 158.11795326 12.48903425 157.69528008 13.37407911 C154.98775049 19.07155903 152.47873482 24.7575024 150.48409081 30.74805677 C150.20404198 31.57096204 149.92399315 32.39386732 149.63545799 33.24170911 C145.03968019 47.07963335 142.51688139 61.24162912 140.29659081 75.62305677 C139.22683006 75.72795423 139.22683006 75.72795423 138.13545799 75.83497083 C102.21693689 78.27021372 102.21693689 78.27021372 71.29659081 94.62305677 C70.34139549 95.51637708 70.34139549 95.51637708 69.36690331 96.42774427 C61.14112981 104.93594775 58.32328768 117.1792405 54.86299706 128.20118177 C54.25107861 130.11358755 53.63914127 132.02598752 53.02612019 133.93804014 C51.53649524 138.58783662 50.0567533 143.24067828 48.5922451 147.89844739 C47.7631385 150.53364236 46.92573367 153.16592569 46.07929039 155.79560316 C45.28852532 158.25352135 44.50973657 160.71533607 43.74497032 163.18146741 C41.22611992 170.94890773 38.38739235 177.60365563 31.67159081 182.56055677 C27.00808396 184.64686246 22.69977662 184.7921201 17.63643456 184.76758802 C16.8889344 184.76523649 16.14143425 184.76288496 15.37128258 184.76046216 C7.89611276 184.69110437 0.47933265 184.18253041 -6.96293068 183.50611341 C-9.16390881 183.30849168 -11.36593889 183.13035283 -13.56864357 182.95313489 C-33.3304519 181.26873033 -33.3304519 181.26873033 -41.23075294 174.51368177 C-45.15797365 169.47183875 -46.46145652 163.16716842 -47.74637794 157.04102552 C-47.91970146 156.22797452 -48.09302498 155.41492353 -48.27160072 154.57723463 C-48.63432337 152.85938534 -48.99295263 151.14066717 -49.3476963 149.42115247 C-49.88228233 146.85201614 -50.44350811 144.2896895 -51.00614357 141.72657239 C-53.99641615 127.64206093 -55.82266828 113.06953506 -51.70340919 98.99805677 C-51.47975685 98.17926038 -51.25610451 97.360464 -51.02567482 96.5168556 C-50.28547894 93.87432654 -49.50140475 91.24867316 -48.70340919 88.62305677 C-48.30122169 87.27461683 -48.30122169 87.27461683 -47.89090919 85.89893568 C-40.82649287 62.55937966 -31.71269447 38.04080959 -19.08559608 17.0843786 C-17.60545098 14.54425472 -17.60545098 14.54425472 -16.29836464 11.40776002 C-12.45715379 3.59399735 -8.91990327 0.24518815 0 0 Z " fill="#1EB7C1" transform="translate(323.7034091949463,341.37694323062897)"/>
<path d="M0 0 C2.65780091 3.75984616 3.74815552 7.27184427 4.75390625 11.7421875 C4.90029037 12.38761505 5.0466745 13.0330426 5.19749451 13.69802856 C5.50502229 15.06367502 5.80817002 16.43031437 6.10717773 17.79785156 C6.55411586 19.83675214 7.0170305 21.87149262 7.48242188 23.90625 C10.71478727 38.25424341 12.35638531 52.34138071 12.25 67.0625 C12.24756287 67.80625885 12.24512573 68.5500177 12.24261475 69.3163147 C12.1895702 83.44971844 11.70581383 97.56713006 11.125 111.6875 C11.08588501 112.68685577 11.04677002 113.68621155 11.00646973 114.71585083 C10.89139102 117.58581086 10.76424923 120.45496611 10.6328125 123.32421875 C10.59936737 124.16973297 10.56592224 125.01524719 10.53146362 125.88638306 C10.18258129 132.93373569 9.75828431 141.44866831 5 147 C-1.20386677 151.26691289 -6.38654524 151.54385181 -13.82495117 150.42431641 C-15.91286987 150.01705322 -15.91286987 150.01705322 -18.04296875 149.6015625 C-46.68656853 144.02063778 -75.34260179 138.51103812 -104 133 C-104 88.78 -104 44.56 -104 -1 C-6.98877708 -5.54740107 -6.98877708 -5.54740107 0 0 Z " fill="#1FB7C1" transform="translate(248,470)"/>
<path d="M0 0 C0.02578125 1.093125 0.0515625 2.18625 0.078125 3.3125 C1.87024056 57.86713472 24.3677692 109.11090051 63.89428711 146.75244141 C69.5729364 152.06293006 75.43856802 156.79357408 82 161 C80.68531437 163.79211988 79.21805351 166.20014612 77.34765625 168.65234375 C76.82405518 169.34038086 76.3004541 170.02841797 75.76098633 170.73730469 C73.42299891 173.76590072 71.08063372 176.79070246 68.72070312 179.80224609 C67.63306198 181.1914268 66.55036085 182.58450211 65.47460938 183.98291016 C59.24059836 192.05684987 53.60797196 198.7269529 43.05859375 200.4921875 C30.34045448 201.30432922 22.0327572 192.62015358 12.78125 185.0703125 C8.94926223 181.94472652 5.04522701 178.92783836 1.11694336 175.92407227 C-3.52561828 172.37099866 -8.13939798 168.78192377 -12.75 165.1875 C-20.82475493 158.89706062 -28.94787463 152.671872 -37.08496094 146.46240234 C-46.69962929 139.12024739 -56.27055307 131.72093938 -65.80078125 124.26953125 C-68.26042815 122.34719386 -70.72972997 120.44273473 -73.23046875 118.57421875 C-78.92422134 114.24292985 -83.30379842 110.84732721 -84.35839844 103.50463867 C-84.82961186 92.42655732 -81.18860374 82.8461322 -77.625 72.5 C-76.98098457 70.58926965 -76.33841898 68.67805005 -75.69726562 66.76635742 C-74.4160722 62.95684629 -73.12339451 59.15153285 -71.82128906 55.34912109 C-70.43072029 51.28135795 -69.07223448 47.20457739 -67.73934937 43.11758423 C-66.67148319 39.84525386 -65.58450865 36.57935125 -64.5 33.3125 C-64.1282666 32.16394531 -63.7565332 31.01539063 -63.37353516 29.83203125 C-60.5691896 21.56817523 -57.08648441 14.359434 -49.4375 9.625 C-48.71433594 9.16351563 -47.99117188 8.70203125 -47.24609375 8.2265625 C-42.07083764 5.40042264 -37.14520901 4.36503082 -31.375 3.5 C-30.55265869 3.37326904 -29.73031738 3.24653809 -28.88305664 3.1159668 C-8.07376603 0 -8.07376603 0 0 0 Z " fill="#1EB7C1" transform="translate(463,437)"/>
<path d="M0 0 C4.05081 2.21214447 7.47066819 5.04203566 11 8 C12.7069935 9.3558552 14.41528491 10.71007831 16.125 12.0625 C16.93710937 12.72378906 17.74921875 13.38507812 18.5859375 14.06640625 C20.17021699 15.33536797 21.77947166 16.57388285 23.4140625 17.77734375 C34.54076668 25.98282292 39.45254051 35.95027392 41.64657593 49.49682617 C41.87759506 51.03367065 41.87759506 51.03367065 42.11328125 52.6015625 C42.37620468 54.25031372 42.37620468 54.25031372 42.6444397 55.93237305 C43.21074753 59.4950426 43.76145603 63.05994099 44.3125 66.625 C44.89985352 70.33891313 45.49161842 74.05210433 46.0839386 77.76522827 C46.48121657 80.25577846 46.87728328 82.74652215 47.2721405 85.23745728 C49.29957717 97.9926676 51.52770524 110.70948135 53.79223633 123.42431641 C53.9273764 124.18550781 54.06251648 124.94669922 54.20175171 125.73095703 C54.55700576 127.72934138 54.9149621 129.72724486 55.27319336 131.72509766 C56.25030311 137.47222287 57.11356802 143.23819212 58 149 C12.79 149 -32.42 149 -79 149 C-79 85.89756426 -79 85.89756426 -65.25 68.625 C-63.81998211 66.79033375 -62.39159446 64.95439565 -60.96484375 63.1171875 C-60.28019043 62.23901367 -59.59553711 61.36083984 -58.89013672 60.45605469 C-56.44488824 57.27868454 -54.11171644 54.03383459 -51.8125 50.75 C-47.72860655 44.94364226 -43.45012571 39.3042772 -39.10791016 33.68896484 C-36.1220579 29.8160179 -33.19526419 25.91176437 -30.33984375 21.94140625 C-29.72979492 21.09666748 -29.11974609 20.25192871 -28.49121094 19.3815918 C-27.32618438 17.76257073 -26.16871189 16.13807471 -25.02050781 14.50708008 C-18.56154384 5.55313376 -11.81483557 -2.22034633 0 0 Z " fill="#1EB7C1" transform="translate(457,632)"/>
<path d="M0 0 C2.22572742 0.37057324 4.45164092 0.74003046 6.67773438 1.10839844 C9.99995704 1.65878336 13.32190966 2.21052305 16.64297485 2.76785278 C23.00365493 3.83478652 29.3683883 4.85671409 35.74609375 5.81640625 C37.16986453 6.03345244 38.59361231 6.25064954 40.01733398 6.46801758 C42.53513487 6.84983518 45.05411032 7.22402885 47.57446289 7.58862305 C57.98357716 9.20043 68.04935992 11.81617846 74.9375 20.3125 C79.96938442 28.86475317 83.07430287 36.14722884 83.17578125 46.12109375 C83.183853 46.88365982 83.19192474 47.64622589 83.20024109 48.43190002 C83.21405478 50.04824575 83.22478905 51.6646203 83.23266602 53.28100586 C83.2441095 54.91097752 83.26443827 56.540914 83.29418945 58.1706543 C83.63088088 76.64353972 79.44391716 92.25852716 66.421875 106.0234375 C52.54492105 118.80943595 36.35843188 121.64066833 18.18359375 121.5078125 C16.671882 121.50407551 15.16016781 121.50123179 13.64845276 121.49923706 C9.69799946 121.49165453 5.74769668 121.47205326 1.79730225 121.4498291 C-2.24513718 121.42925378 -6.28760127 121.42021052 -10.33007812 121.41015625 C-18.24095396 121.38880147 -26.15170818 121.35473175 -34.0625 121.3125 C-37.97544285 99.06965766 -41.85495163 76.82165684 -45.63134766 54.55517578 C-46.85703088 47.33369307 -48.08772212 40.1143096 -49.390625 32.90625 C-49.58180908 31.84220947 -49.77299316 30.77816895 -49.9699707 29.68188477 C-50.3062213 27.821897 -50.647864 25.96286945 -50.99682617 24.10522461 C-52.51690795 15.67722509 -53.10902895 8.65438566 -48.0625 1.3125 C-36.6157735 -9.5758496 -13.87173218 -2.36261885 0 0 Z " fill="#1EB7C1" transform="translate(569.0625,659.6875)"/>
<path d="M0 0 C2.27756636 0.26110357 4.55678977 0.49971026 6.83691406 0.73730469 C17.98480759 1.96241594 28.67801711 3.73080085 37.96191406 10.51074219 C38.49204102 10.89391602 39.02216797 11.27708984 39.56835938 11.671875 C45.08640575 15.71330629 50.39142752 20.0375939 55.70410156 24.34277344 C59.75697501 27.61609219 63.88053984 30.79129869 68.02441406 33.94824219 C68.72800049 34.48441162 69.43158691 35.02058105 70.15649414 35.57299805 C72.32001291 37.21995117 74.48470657 38.86535194 76.64941406 40.51074219 C81.70408022 44.35804514 86.75377946 48.21163109 91.79003906 52.08300781 C92.96804386 52.98754721 94.14755054 53.89013683 95.32910156 54.79003906 C96.75414831 55.87690847 98.17090967 56.97461809 99.58691406 58.07324219 C100.71419922 58.94142578 100.71419922 58.94142578 101.86425781 59.82714844 C104.52124765 62.33297474 105.48188683 64.3909549 106.02050781 67.99121094 C106.3405405 81.03724943 97.85230947 89.47821439 90.29296875 99.34521484 C88.63150331 101.53434117 86.99996039 103.74291651 85.37597656 105.95996094 C84.58042358 107.04071899 84.58042358 107.04071899 83.76879883 108.14331055 C82.75683239 109.51962934 81.74925146 110.89918728 80.74682617 112.2824707 C77.36892348 116.84753698 74.20313707 120.65950119 68.64941406 122.51074219 C59.11679041 123.16683043 50.54445026 121.9895436 41.33691406 119.63574219 C39.40878154 119.16429398 37.48064564 118.69285945 35.55241394 118.22181702 C33.44820891 117.70480829 31.3460534 117.1800542 29.24414062 116.65380859 C24.20605295 115.39545245 19.1584794 114.17730146 14.11035156 112.95996094 C-5.07062046 108.32484753 -5.07062046 108.32484753 -14.09197998 106.0713501 C-15.57964869 105.70209629 -17.06844579 105.33735481 -18.55841064 104.97747803 C-20.60786398 104.48243109 -22.65321442 103.97293656 -24.69824219 103.45996094 C-25.84429932 103.17854248 -26.99035645 102.89712402 -28.17114258 102.60717773 C-34.4688818 100.43539344 -38.05650986 97.24487462 -41.35058594 91.51074219 C-46.50292029 76.05373914 -42.10782595 53.37570144 -41.2845459 37.32659912 C-41.16206956 34.91092195 -41.04559768 32.49493274 -40.93518066 30.07867432 C-40.77476806 26.6315764 -40.58950942 23.18667407 -40.39746094 19.74121094 C-40.3524646 18.69840469 -40.30746826 17.65559845 -40.2611084 16.58119202 C-39.8248468 9.46594339 -38.42629723 6.07856728 -33.78808594 0.69824219 C-26.52569972 -5.30112034 -8.90567865 -1.03304336 0 0 Z " fill="#1EB7C1" transform="translate(319.3505859375,544.4892578125)"/>
<path d="M0 0 C13.53342752 8.86672838 23.17904649 20.82986142 27.359375 36.61328125 C27.91833193 40.47567366 28.05560197 44.28859239 28.125 48.1875 C28.16238281 48.94546875 28.19976562 49.7034375 28.23828125 50.484375 C28.4293756 63.4363256 21.86846654 75.85932484 16.25 87.1875 C15.63250828 88.44658831 15.01541035 89.70586981 14.39868164 90.96533203 C4.95565237 110.18100618 -5.08134085 129.02033944 -15.70996094 147.60546875 C-18.19258122 151.96933903 -20.62936823 156.35839732 -23.0625 160.75 C-23.48942139 161.52013428 -23.91634277 162.29026855 -24.35620117 163.08374023 C-25.32155635 164.82624178 -26.28590777 166.56929937 -27.25 168.3125 C-31.02071642 167.05559453 -31.22504664 166.04329001 -33.03515625 162.59765625 C-33.56052979 161.61079834 -34.08590332 160.62394043 -34.62719727 159.60717773 C-35.18334717 158.54055908 -35.73949707 157.47394043 -36.3125 156.375 C-37.4886945 154.1583823 -38.66578477 151.9422397 -39.84375 149.7265625 C-40.42382812 148.62989258 -41.00390625 147.53322266 -41.6015625 146.40332031 C-43.78010731 142.31854879 -46.03988251 138.28289191 -48.3125 134.25 C-54.19619785 123.72902869 -59.74458418 113.03516448 -65.25 102.3125 C-65.74741699 101.34634766 -66.24483398 100.38019531 -66.75732422 99.38476562 C-89.16686996 55.72694283 -89.16686996 55.72694283 -82.6875 32.5625 C-77.23851032 17.16815153 -67.69085412 5.93901418 -53.25 -1.6875 C-35.9613554 -9.08407227 -16.72016399 -9.30626182 0 0 Z " fill="#1EB6C1" transform="translate(292.25,203.6875)"/>
<path d="M0 0 C7.5053315 5.36133829 11.16346137 15.15211445 14.55401611 23.40289307 C17.57011701 30.69549546 21.68472921 39.25476129 28.375 43.75 C31.76217587 44.91799168 33.72685892 45.13540329 37.2265625 45.078125 C38.12197754 45.0668457 39.01739258 45.05556641 39.93994141 45.04394531 C40.61976074 45.02944336 41.29958008 45.01494141 42 45 C39.45211719 52.32305389 39.45211719 52.32305389 38.19140625 55.89550781 C36.26918907 61.34367435 34.39072327 66.80338327 32.5546875 72.28125 C31.70349123 74.77095857 30.85193155 77.26054293 30 79.75 C29.41436279 81.53325684 29.41436279 81.53325684 28.81689453 83.35253906 C26.39901579 90.33972325 23.76940901 96.16367669 18 101 C15.00835164 101.99721612 12.74281691 102.2180892 9.60839844 102.37304688 C7.94825714 102.45818542 7.94825714 102.45818542 6.25457764 102.54504395 C5.05166077 102.60236694 3.8487439 102.65968994 2.609375 102.71875 C1.35860168 102.78155151 0.10782837 102.84435303 -1.18084717 102.90905762 C-4.52560123 103.07611622 -7.87049698 103.23943655 -11.21551514 103.40106201 C-14.52796111 103.56214787 -17.84013275 103.72869437 -21.15234375 103.89453125 C-27.57392113 104.21439759 -33.99589623 104.52494418 -40.41821289 104.82958984 C-42.72280262 104.93923497 -45.02733312 105.05013584 -47.33178711 105.16259766 C-59.23265109 105.74214039 -71.08353352 106.15565776 -83 106 C-83.12814795 98.19378456 -83.21490926 90.38784621 -83.2746582 82.58081055 C-83.29674617 79.93186087 -83.33355806 77.2843153 -83.37719727 74.63549805 C-83.74298412 51.84052199 -82.60536361 33.30559833 -66.4375 15.8125 C-51.18315893 1.2536456 -20.55973795 -8.45972037 0 0 Z " fill="#1FB7C1" transform="translate(227,343)"/>
<path d="M0 0 C1.62663574 -0.01546875 1.62663574 -0.01546875 3.28613281 -0.03125 C19.60735497 0.14685367 34.85680144 5.52680681 46.69140625 16.9921875 C55.95307646 27.36393268 61.33610219 40.27135745 61.1484375 54.21484375 C59.74482978 70.7573633 52.16935582 83.57656683 39.875 94.4375 C35.8945282 97.75556349 31.84149925 100.97837155 27.6796875 104.06640625 C20.74447615 109.53810342 17.00204916 116.92930337 14.875 125.4375 C14.38 131.8725 14.38 131.8725 13.875 138.4375 C3.645 138.4375 -6.585 138.4375 -17.125 138.4375 C-18.02812513 106.28624527 -18.02812513 106.28624527 -6.9375 94.125 C-5.0494427 92.17405002 -3.10548154 90.29420145 -1.125 88.4375 C-0.2484375 87.6125 0.628125 86.7875 1.53125 85.9375 C4.650339 83.0879619 7.82233786 80.31565665 11.06640625 77.609375 C19.05901628 70.87556313 23.91073222 64.73838459 25.3125 54.125 C24.56935004 47.86130746 21.81553655 41.836781 17.125 37.5 C10.18470646 33.09558295 3.07523704 31.31814249 -5.125 32.4375 C-11.77938532 34.20071288 -17.58853699 37.18076292 -22.125 42.4375 C-25.31037764 48.0650005 -25.3644715 51.5927435 -26.125 58.4375 C-37.675 58.4375 -49.225 58.4375 -61.125 58.4375 C-61.125 41.98971401 -57.39030394 28.98385223 -46.0625 16.6875 C-32.91509693 4.40916256 -17.61636785 0.13929915 0 0 Z " fill="#1EB6C0" transform="translate(662.125,341.5625)"/>
<path d="M0 0 C5.85574934 2.70870555 10.04651291 7.31489377 12.47265625 13.31640625 C13.33751528 20.91912047 13.27652441 28.07876821 8.47265625 34.31640625 C4.58322378 38.4722382 0.32116915 40.97851369 -5.359375 41.65234375 C-13.04640064 41.75309114 -18.51581143 41.01453761 -24.27734375 35.703125 C-29.26028809 30.30094256 -31.05318919 24.93606651 -30.83203125 17.61328125 C-29.87776172 10.41955714 -25.74394704 6.14676256 -20.33203125 1.6640625 C-14.90400078 -2.38933688 -6.30872278 -1.70637788 0 0 Z " fill="#FCFEFE" transform="translate(272.52734375,232.68359375)"/>
<path d="M0 0 C5.48784602 2.9926042 8.5382951 6.02320808 11.125 11.8125 C12.75769832 19.08542889 11.70469264 24.59726993 7.8125 30.875 C3.59056199 35.67962679 -0.86462724 38.35883609 -7.28125 39.125 C-13.03530299 39.44029058 -17.55697383 38.38680661 -22.1875 34.875 C-27.77883552 28.83392662 -29.58296473 23.92810546 -29.453125 15.7265625 C-29.04964976 11.39513716 -27.9675599 8.24343237 -25.1875 4.875 C-17.30742895 -1.63957138 -9.62941274 -4.48414444 0 0 Z " fill="#1EB6C0" transform="translate(670.1875,498.125)"/>
<path d="M0 0 C0.495 0.99 0.495 0.99 1 2 C0.566875 3.0209375 0.566875 3.0209375 0.125 4.0625 C-1.48187751 7.88835237 -1.48187751 7.88835237 -2 16 C-13.55 16 -25.1 16 -37 16 C-37 14.02 -37 12.04 -37 10 C-36.67 11.32 -36.34 12.64 -36 14 C-25.44 14 -14.88 14 -4 14 C-3.67 11.36 -3.34 8.72 -3 6 C-1.4375 2.5 -1.4375 2.5 0 0 Z " fill="#16B2BC" transform="translate(638,384)"/>
<path d="M0 0 C0.06058594 1.30195313 0.12117188 2.60390625 0.18359375 3.9453125 C0.26804562 5.67188399 0.35269126 7.398446 0.4375 9.125 C0.47681641 9.9809375 0.51613281 10.836875 0.55664062 11.71875 C0.78208086 16.2275547 1.23214907 20.54646463 2 25 C2.06305204 26.79067806 2.08671114 28.58337579 2.0625 30.375 C2.05347656 31.24898438 2.04445313 32.12296875 2.03515625 33.0234375 C2.02355469 33.67570312 2.01195312 34.32796875 2 35 C1.67 35 1.34 35 1 35 C-1.06134225 24.03285869 -1.57834581 13.12945146 -2 2 C-3.65 2 -5.3 2 -7 2 C-7 1.67 -7 1.34 -7 1 C-2.25 0 -2.25 0 0 0 Z " fill="#10ACB8" transform="translate(463,437)"/>
<path d="M0 0 C0 4.19869272 -1.80189134 5.33536973 -4.625 8.375 C-5.0792334 8.86524658 -5.5334668 9.35549316 -6.00146484 9.8605957 C-9.14169527 13.20678863 -12.35643264 16.21938281 -16 19 C-16.66 18.67 -17.32 18.34 -18 18 C-12.06 12.06 -6.12 6.12 0 0 Z " fill="#14ADB9" transform="translate(777,532)"/>
<path d="M0 0 C-2.3135629 1.54237527 -4.18907145 2.54048943 -6.6875 3.625 C-11.74222823 6.08202931 -15.25097794 9.89202902 -19 14 C-19.33 13.34 -19.66 12.68 -20 12 C-15.01560027 5.21730704 -8.87102889 -0.51448849 0 0 Z " fill="#11ADB9" transform="translate(425,443)"/>
<path d="M0 0 C3.21221883 3.88420024 6.0587378 7.91232031 8.8125 12.125 C9.44188477 13.05505859 9.44188477 13.05505859 10.08398438 14.00390625 C11.13791984 15.61866734 12.07824681 17.30630452 13 19 C12.67 19.99 12.34 20.98 12 22 C10.17443528 19.27936597 8.36697287 16.54715963 6.5625 13.8125 C6.04623047 13.04357422 5.52996094 12.27464844 4.99804688 11.48242188 C4.25844727 10.35610352 4.25844727 10.35610352 3.50390625 9.20703125 C3.04830322 8.5210083 2.5927002 7.83498535 2.12329102 7.12817383 C0.87296384 4.75931879 0.40479728 2.63621711 0 0 Z " fill="#14ADB9" transform="translate(530,505)"/>
<path d="M0 0 C0.66 0.33 1.32 0.66 2 1 C0.54144353 4.68646141 -1.30229045 6.16143971 -4.625 8.25 C-5.44226563 8.77078125 -6.25953125 9.2915625 -7.1015625 9.828125 C-8.04128906 10.40820312 -8.04128906 10.40820312 -9 11 C-7.59155282 7.78475695 -5.89655214 5.67816132 -3.375 3.25 C-2.74335938 2.63640625 -2.11171875 2.0228125 -1.4609375 1.390625 C-0.73777344 0.70226562 -0.73777344 0.70226562 0 0 Z " fill="#0FADBA" transform="translate(165,355)"/>
<path d="M0 0 C0.66 0 1.32 0 2 0 C2 3.96 2 7.92 2 12 C1.01 12 0.02 12 -1 12 C-1.02698189 10.37509046 -1.04638757 8.75005367 -1.0625 7.125 C-1.07410156 6.22007812 -1.08570313 5.31515625 -1.09765625 4.3828125 C-1 2 -1 2 0 0 Z " fill="#2EBBC5" transform="translate(256,591)"/>
<path d="M0 0 C-1.0625 1.5 -1.0625 1.5 -3 3 C-6.6875 3.1875 -6.6875 3.1875 -10 3 C-6.88378718 -0.11621282 -4.21175599 -0.11383124 0 0 Z " fill="#11ADB9" transform="translate(615,265)"/>
</svg>
